<svg xmlns:dc="http://purl.org/dc/elements/1.1/" xmlns:cc="http://creativecommons.org/ns#" xmlns:rdf="http://www.w3.org/1999/02/22-rdf-syntax-ns#" xmlns:svg="http://www.w3.org/2000/svg" xmlns="http://www.w3.org/2000/svg" xmlns:xlink="http://www.w3.org/1999/xlink" id="svg217850" viewBox="0 0 1024 768" height="768px" width="1024px" version="1.1">
  <metadata id="metadata217856">
    <rdf:rdf>
      <cc:work rdf:about="">
        <dc:format>image/svg+xml</dc:format>
        <dc:type rdf:resource="http://purl.org/dc/dcmitype/StillImage"></dc:type>
      </cc:work>
    </rdf:rdf>
  </metadata>
  <defs id="defs217854"></defs>
  <linearGradient spreadMethod="pad" y2="30%" x2="-10%" y1="120%" x1="30%" id="3d_gradient2-logo-b629545a-9260-468a-a127-9f9c51d8d910">
    <stop id="stop217831" stop-opacity="1" stop-color="#ffffff" offset="0%"></stop>
    <stop id="stop217833" stop-opacity="1" stop-color="#000000" offset="100%"></stop>
  </linearGradient>
  <linearGradient gradientTransform="rotate(-30)" spreadMethod="pad" y2="30%" x2="-10%" y1="120%" x1="30%" id="3d_gradient3-logo-b629545a-9260-468a-a127-9f9c51d8d910">
    <stop id="stop217836" stop-opacity="1" stop-color="#ffffff" offset="0%"></stop>
    <stop id="stop217838" stop-opacity="1" stop-color="#cccccc" offset="50%"></stop>
    <stop id="stop217840" stop-opacity="1" stop-color="#000000" offset="100%"></stop>
  </linearGradient>
  <g id="logo-group">
    <image xlink:href="" id="container" x="272" y="144" width="480" height="480" transform="translate(0 0)" style="display: none;"></image>
    <g id="logo-center" transform="translate(-1.1368683772161603e-13 0)">
      <image xlink:href="" id="icon_container" x="0" y="0" style="display: none;"></image>
      <g id="slogan" style="font-style:oblique;font-weight:normal;font-size:32px;line-height:1;font-family:'Fanwood Text';font-variant-ligatures:none;text-align:center;text-anchor:middle" transform="translate(0 0)"></g>
      <g id="title" style="font-style:normal;font-weight:normal;font-size:72px;line-height:1;font-family:'Brandmark Script 5';font-variant-ligatures:normal;text-align:center;text-anchor:middle" transform="translate(0 0)">
        <path id="path217859" style="font-style:normal;font-weight:normal;font-size:72px;line-height:1;font-family:'Brandmark Script 5';font-variant-ligatures:normal;text-align:center;text-anchor:middle" d="m 468.83431,-64.224 c -14.4,-19.512 -51.552,-21.672 -66.888,-21.672 -23.4,0 -63.864,10.728 -71.352,27.144 -1.584,3.456 -2.448,8.784 2.376,14.472 1.224,1.44 3.312,1.584 4.752,0.36 1.44,-1.224 1.584,-3.312 0.36,-4.752 -2.088,-2.448 -2.448,-4.68 -1.296,-7.2 5.472,-12.024 41.4,-23.256 65.16,-23.256 11.16,0 48.6,1.368 61.488,18.936 4.968,6.768 5.76,15.192 2.448,25.704 -3.384,10.656 -10.8,18.936 -22.176,24.624 -20.448,10.224 -50.76,10.008 -68.04,3.816 -1.8,-0.648 -3.744,0.288 -4.32,2.016 -0.576,1.8 0.288,3.744 2.016,4.32 8.424,2.808 19.512,4.752 31.248,4.752 14.328,0 29.592,-2.592 42.12,-8.856 13.104,-6.552 21.744,-16.2 25.632,-28.656 3.888,-12.528 2.736,-23.256 -3.528,-31.752 z m -46.728,-5.832 c -1.44,-1.296 -3.528,-1.224 -4.824,0.144 l -63.432,68.184 c -1.296,1.368 -1.296,3.6 0.144,4.824 0.648,0.576 1.512,0.864 2.304,0.864 0.936,0 1.8,-0.36 2.52,-1.08 l 63.432,-68.184 c 1.296,-1.368 1.224,-3.528 -0.144,-4.752 z" stroke-width="0" stroke-linejoin="miter" stroke-miterlimit="2" fill="#538bde" stroke="#538bde" transform="translate(0 323.632) translate(140.664964 -35.896) scale(2) translate(-329.34477 85.896)"></path>
        <path id="path217861" style="font-style:normal;font-weight:normal;font-size:72px;line-height:1;font-family:'Brandmark Script 5';font-variant-ligatures:normal;text-align:center;text-anchor:middle" d="m 546.03181,-16.128 c -1.008,-1.584 -3.096,-2.016 -4.68,-1.008 -31.824,20.664 -44.352,18.36 -48.24,16.344 -2.88,-1.44 -3.384,-3.672 -3.456,-4.824 -0.072,-1.152 0,-2.16 0.216,-3.168 0.144,0 0.36,0.072 0.576,0.072 12.744,0.216 30.816,-8.28 31.536,-14.904 0.36,-2.664 -0.72,-4.968 -2.88,-6.336 -5.112,-3.312 -15.12,-0.792 -22.464,3.456 -9.288,5.4 -14.256,13.176 -13.752,21.24 0.288,4.536 2.88,8.352 7.128,10.512 2.304,1.152 5.328,2.016 9.36,2.016 9.216,0 23.472,-4.32 45.648,-18.72 1.584,-1.008 2.016,-3.096 1.008,-4.68 z m -44.136,-5.472 c 4.752,-2.448 8.784,-3.096 11.16,-3.096 1.008,0 1.656,0.072 2.088,0.216 -1.944,2.376 -11.664,7.92 -21.456,8.856 2.88,-3.096 6.552,-5.184 8.208,-5.976 z" stroke-width="0" stroke-linejoin="miter" stroke-miterlimit="2" fill="#73a4e7" stroke="#73a4e7" transform="translate(0 323.632) translate(447.68118400000014 72.947182) scale(2) translate(-482.85288 31.474409)"></path>
        <path id="path217863" style="font-style:normal;font-weight:normal;font-size:72px;line-height:1;font-family:'Brandmark Script 5';font-variant-ligatures:normal;text-align:center;text-anchor:middle" d="m 616.99569,-20.52 c -0.936,-1.584 -3.024,-2.16 -4.608,-1.152 -19.296,11.592 -31.824,8.136 -36.36,6.048 l -0.936,-0.432 c 0.216,-0.288 0.432,-0.504 0.504,-0.648 1.728,-2.16 2.16,-4.68 1.152,-6.84 -1.008,-2.16 -3.456,-3.672 -6.192,-3.744 -3.024,0 -5.616,1.512 -6.984,4.032 -1.224,2.304 -0.576,5.184 1.656,7.92 -7.56,7.632 -20.16,18.504 -25.632,18.936 -0.288,-1.152 -0.144,-4.968 2.88,-12.816 2.448,-6.408 5.544,-12.096 6.696,-13.392 1.224,-1.368 1.08,-3.528 -0.288,-4.752 -1.368,-1.224 -3.528,-1.152 -4.752,0.288 -2.808,3.024 -14.4,25.344 -10.656,33.768 1.08,2.376 3.24,3.672 5.904,3.672 8.568,0 23.112,-13.32 30.96,-21.384 6.696,4.032 22.032,9.288 45.504,-4.896 1.656,-0.936 2.16,-3.024 1.152,-4.608 z" stroke-width="0" stroke-linejoin="miter" stroke-miterlimit="2" fill="#93bdef" stroke="#93bdef" transform="translate(0 323.632) translate(547.4522440000002 79.456872) scale(2) translate(-532.73841 28.219564)"></path>
        <path id="path217865" style="font-style:normal;font-weight:normal;font-size:72px;line-height:1;font-family:'Brandmark Script 5';font-variant-ligatures:normal;text-align:center;text-anchor:middle" d="m 700.08369,-20.664 c -1.008,-1.512 -3.096,-2.016 -4.68,-0.936 -13.176,8.64 -22.176,13.968 -35.352,13.968 -2.736,0 -4.68,-0.864 -5.904,-2.52 -2.304,-3.024 -2.304,-8.352 -1.872,-11.736 0.288,0 0.504,-0.072 0.792,-0.144 1.8,-0.576 2.736,-2.52 2.16,-4.32 -0.936,-2.592 -3.744,-5.472 -12.312,-4.104 -12.168,2.016 -34.992,13.032 -34.992,27 0,3.096 1.728,5.544 4.536,6.552 0.864,0.288 1.872,0.432 2.88,0.432 7.2,0 18.72,-6.408 30.096,-18.648 0.36,3.168 1.296,6.408 3.24,9.072 1.8,2.304 5.256,5.184 11.376,5.184 15.048,0 25.272,-5.976 39.096,-15.12 1.584,-1.008 2.016,-3.096 0.936,-4.68 z m -85.392,17.352 v -0.144 c 0,-4.32 5.112,-9.792 13.248,-14.328 6.12,-3.384 12.024,-5.256 16.056,-5.976 -13.536,16.2 -26.568,21.528 -29.304,20.448 z" stroke-width="0" stroke-linejoin="miter" stroke-miterlimit="2" fill="#b3d6f8" stroke="#b3d6f8" transform="translate(0 323.632) translate(697.822804 74.279374) scale(2) translate(-607.92369 30.808313)"></path>
      </g>
      <image xlink:href="" id="icon" x="0" y="0" style="display: none;"></image>
    </g>
  </g>
</svg>